<svg xmlns="http://www.w3.org/2000/svg" width="128.5" height="129.7" viewBox="0 0 128.5 129.7">
  <g id="Group_75" data-name="Group 75" transform="translate(0.1)">
    <g id="Group_76" data-name="Group 76" transform="translate(0 0)">
      <path id="Path_10" data-name="Path 10" d="M1.4,54.8a8.315,8.315,0,0,1-1-2.3,10.474,10.474,0,0,1-.5-3c0-2,.4-3.4,1.3-4.2A4.6,4.6,0,0,1,4.7,44H37.8a8.315,8.315,0,0,1,1,2.3,10.474,10.474,0,0,1,.5,3c0,2-.4,3.4-1.3,4.2a4.6,4.6,0,0,1-3.5,1.3H26.1V89.9a20.07,20.07,0,0,1-2.6.5,21.145,21.145,0,0,1-3.5.2,14.822,14.822,0,0,1-3.1-.3,6.336,6.336,0,0,1-2.2-.9,4.5,4.5,0,0,1-1.4-1.9,9.331,9.331,0,0,1-.5-3.2V54.9Z" fill="#fff"/>
      <path id="Path_11" data-name="Path 11" d="M38.4,24.4a26.923,26.923,0,0,1,1.9-10.5,20.374,20.374,0,0,1,5.1-7.6A21.172,21.172,0,0,1,53,1.6,25.6,25.6,0,0,1,62.3,0a26.145,26.145,0,0,1,9.4,1.6,21.172,21.172,0,0,1,7.6,4.7,20.374,20.374,0,0,1,5.1,7.6,28.1,28.1,0,0,1,1.9,10.5,28.527,28.527,0,0,1-1.8,10.5,21.849,21.849,0,0,1-5,7.7,23.689,23.689,0,0,1-7.6,4.7,26.87,26.87,0,0,1-9.6,1.6,27.645,27.645,0,0,1-9.6-1.6,22.654,22.654,0,0,1-7.6-4.7,20.981,20.981,0,0,1-5-7.7A31.671,31.671,0,0,1,38.4,24.4Zm13.6,0c0,4.6.9,8,2.8,10.3a9.211,9.211,0,0,0,7.5,3.4,9.274,9.274,0,0,0,7.6-3.4c1.9-2.3,2.8-5.7,2.8-10.3s-.9-8-2.8-10.2a9.144,9.144,0,0,0-7.6-3.4,9.407,9.407,0,0,0-7.6,3.4C53,16.3,52,19.8,52,24.4Z" fill="#fff"/>
      <path id="Path_12" data-name="Path 12" d="M61.4,129.7c-.9,0-1.8,0-3-.1-1.1-.1-2.3-.2-3.5-.3-1.2-.2-2.4-.3-3.6-.6a15.912,15.912,0,0,1-3.3-.9c-2.8-1.1-4.2-2.9-4.2-5.5V86.9a3.328,3.328,0,0,1,.9-2.5A6.916,6.916,0,0,1,47.1,83,31.285,31.285,0,0,1,54,81.6c2.4-.2,4.6-.3,6.5-.3a39.6,39.6,0,0,1,10.7,1.4,22.77,22.77,0,0,1,8.3,4.4,20.21,20.21,0,0,1,5.4,7.6,27.1,27.1,0,0,1,1.9,10.8A28.7,28.7,0,0,1,85,116.1a20.225,20.225,0,0,1-5.2,7.6,22.246,22.246,0,0,1-8.1,4.6A36.136,36.136,0,0,1,61.4,129.7Zm-4.2-11.1c.6.1,1.2.2,2,.3a18.484,18.484,0,0,0,2.3.1,14.033,14.033,0,0,0,4.7-.8,9.127,9.127,0,0,0,3.7-2.4,11.7,11.7,0,0,0,2.4-4.1,18.249,18.249,0,0,0,.9-6.1c0-4.6-1.1-8-3.2-10.3a11.077,11.077,0,0,0-8.5-3.5,16.951,16.951,0,0,0-2.2.1,16.353,16.353,0,0,0-2.2.2Z" fill="#fff"/>
      <path id="Path_13" data-name="Path 13" d="M80.4,66.4a26.923,26.923,0,0,1,1.9-10.5,20.374,20.374,0,0,1,5.1-7.6A21.172,21.172,0,0,1,95,43.6a26.528,26.528,0,0,1,9.4-1.6,26.145,26.145,0,0,1,9.4,1.6,21.172,21.172,0,0,1,7.6,4.7,20.374,20.374,0,0,1,5.1,7.6,28.1,28.1,0,0,1,1.9,10.5,28.157,28.157,0,0,1-1.8,10.5,22.791,22.791,0,0,1-5,7.7,23.689,23.689,0,0,1-7.6,4.7,26.87,26.87,0,0,1-9.6,1.6,27.645,27.645,0,0,1-9.6-1.6,22.654,22.654,0,0,1-7.6-4.7,21.849,21.849,0,0,1-5-7.7A28.9,28.9,0,0,1,80.4,66.4Zm13.7,0c0,4.6.9,8,2.8,10.3a10.082,10.082,0,0,0,15.1,0c1.9-2.3,2.8-5.7,2.8-10.3s-.9-8-2.8-10.2a9.144,9.144,0,0,0-7.6-3.4,9.407,9.407,0,0,0-7.6,3.4Q94.1,59.5,94.1,66.4Z" fill="#fff"/>
    </g>
  </g>
</svg>
